<svg width="32" height="31" viewBox="0 0 32 31" fill="none" xmlns="http://www.w3.org/2000/svg">
<path fill-rule="evenodd" clip-rule="evenodd" d="M11.8864 10.802H17.8288V13.6694C18.6848 12.0203 20.88 10.5385 24.1776 10.5385C30.4992 10.5385 32 13.8214 32 19.8447V31H25.6V21.2164C25.6 17.7862 24.744 15.8518 22.5648 15.8518C19.5424 15.8518 18.2864 17.9366 18.2864 21.2148V31H11.8864V10.802ZM0.912 30.7365H7.312V10.5385H0.912V30.7365ZM8.2288 3.9525C8.22904 4.47218 8.12265 4.98671 7.91582 5.46621C7.70899 5.94571 7.40584 6.3806 7.024 6.7456C6.25024 7.49057 5.2029 7.90756 4.112 7.905C3.02302 7.90429 1.9781 7.48836 1.2032 6.74715C0.822738 6.3809 0.520617 5.94553 0.31415 5.46597C0.107682 4.98641 0.000926611 4.4721 0 3.9525C0 2.90315 0.432 1.89875 1.2048 1.15785C1.97902 0.415646 3.02438 -0.000463777 4.1136 3.8791e-07C5.2048 3.8791e-07 6.2512 0.41695 7.024 1.15785C7.7952 1.89875 8.2288 2.90315 8.2288 3.9525Z" fill="black"/>
</svg>
