<svg width="283" height="16" viewBox="0 0 283 16" fill="none" xmlns="http://www.w3.org/2000/svg">
<mask id="mask0_1_299" style="mask-type:alpha" maskUnits="userSpaceOnUse" x="0" y="0" width="283" height="16">
<path d="M8.54 0.289999V0.51H6.54V11.89C6.41333 12.2767 6.25333 12.7 6.06 13.16C5.86667 13.62 5.62333 14.06 5.33 14.48C5.03667 14.8933 4.67667 15.2333 4.25 15.5C3.82333 15.7667 3.31 15.9 2.71 15.9C2.15 15.9 1.66667 15.7867 1.26 15.56C0.86 15.34 0.55 15.0567 0.33 14.71C0.11 14.3567 0 13.99 0 13.61C0 13.3033 0.06 13.04 0.18 12.82C0.3 12.6 0.46 12.4333 0.66 12.32C0.866667 12.2067 1.08667 12.15 1.32 12.15C1.52 12.15 1.72 12.1967 1.92 12.29C2.12667 12.3833 2.29667 12.53 2.43 12.73C2.56333 12.93 2.63 13.18 2.63 13.48C2.63 13.7667 2.56333 14.0067 2.43 14.2C2.30333 14.3867 2.13667 14.5267 1.93 14.62C1.72333 14.7067 1.50667 14.7433 1.28 14.73C1.09333 14.7233 0.91 14.66 0.73 14.54C0.55 14.42 0.433333 14.2667 0.38 14.08C0.453333 14.3533 0.59 14.61 0.79 14.85C0.99 15.09 1.24 15.28 1.54 15.42C1.84667 15.5667 2.18667 15.64 2.56 15.64C3.05333 15.64 3.42333 15.49 3.67 15.19C3.92333 14.8833 4.09333 14.4233 4.18 13.81C4.26667 13.19 4.31 12.4167 4.31 11.49V0.51H1.71V0.289999H8.54Z" fill="black"/>
<path d="M13.1369 10.52V10.3H19.4169V10.52H13.1369ZM17.1269 0L22.3469 15.07H23.8369V15.29H17.7469V15.07H19.7669L15.8469 2.93L11.6069 15.07H13.8669V15.29H9.46688V15.07H11.3469L16.6369 0H17.1269Z" fill="black"/>
<path d="M31.9894 15.49L26.4294 0.289999H28.6794L33.1294 12.28L37.3294 0.289999H37.5694L32.2594 15.49H31.9894ZM26.5494 0.289999V15.07H28.0594V15.29H24.8794V15.07H26.3094V0.51H24.7794V0.289999H26.5494ZM41.1394 0.289999V0.51H39.7294V15.07H41.1394V15.29H35.8894V15.07H37.4994V0.289999H41.1394Z" fill="black"/>
<path d="M42.0645 15.29V15.07H43.8645V0.51H42.0645V0.289999H52.8945V4.39H52.6745C52.6479 3.67667 52.5079 3.02667 52.2545 2.44C52.0012 1.85333 51.6212 1.38667 51.1145 1.04C50.6079 0.686666 49.9645 0.51 49.1845 0.51H46.1045V15.07H48.9845C49.8979 15.07 50.6345 14.89 51.1945 14.53C51.7545 14.17 52.1679 13.67 52.4345 13.03C52.7012 12.3833 52.8479 11.6367 52.8745 10.79H53.0945V15.29H42.0645ZM49.3545 9.81C49.3279 9.36333 49.2112 8.98 49.0045 8.66C48.7979 8.33333 48.5312 8.08333 48.2045 7.91C47.8845 7.73 47.5345 7.64 47.1545 7.64H45.4645V7.42H47.1545C47.5345 7.42 47.8845 7.34 48.2045 7.18C48.5312 7.02 48.7979 6.78667 49.0045 6.48C49.2112 6.17333 49.3279 5.79667 49.3545 5.35H49.5845V9.81H49.3545Z" fill="black"/>
<path d="M59.8911 15.58C59.0511 15.58 58.3278 15.45 57.7211 15.19C57.1211 14.9233 56.6178 14.5633 56.2111 14.11L55.0011 15.49H54.8011V11.22H55.0311C55.1644 11.7867 55.3511 12.32 55.5911 12.82C55.8378 13.3133 56.1511 13.75 56.5311 14.13C56.9111 14.51 57.3644 14.8067 57.8911 15.02C58.4244 15.2333 59.0411 15.34 59.7411 15.34C60.4278 15.34 61.0244 15.22 61.5311 14.98C62.0378 14.7333 62.4278 14.38 62.7011 13.92C62.9811 13.4533 63.1211 12.89 63.1211 12.23C63.1211 11.6567 62.9744 11.1733 62.6811 10.78C62.3944 10.3867 62.0111 10.0467 61.5311 9.76C61.0511 9.46667 60.5244 9.19667 59.9511 8.95C59.3844 8.69667 58.8144 8.43333 58.2411 8.16C57.6678 7.88 57.1411 7.55333 56.6611 7.18C56.1878 6.80667 55.8044 6.35333 55.5111 5.82C55.2178 5.28667 55.0711 4.63667 55.0711 3.87C55.0711 3.11 55.2644 2.44667 55.6511 1.88C56.0444 1.31333 56.5611 0.873333 57.2011 0.56C57.8411 0.246666 58.5411 0.0899997 59.3011 0.0899997C59.9544 0.0899997 60.5478 0.193332 61.0811 0.399999C61.6211 0.606666 62.0911 0.92 62.4911 1.34L63.6811 0.0899997H63.8711V4.31H63.6511C63.4844 3.43 63.2078 2.69667 62.8211 2.11C62.4344 1.52333 61.9578 1.08333 61.3911 0.79C60.8244 0.496667 60.1878 0.35 59.4811 0.35C58.5678 0.35 57.8744 0.579999 57.4011 1.04C56.9278 1.49333 56.6911 2.08667 56.6911 2.82C56.6911 3.34 56.8344 3.78 57.1211 4.14C57.4078 4.5 57.7844 4.81667 58.2511 5.09C58.7178 5.36333 59.2311 5.62667 59.7911 5.88C60.3578 6.12667 60.9211 6.39667 61.4811 6.69C62.0478 6.98333 62.5644 7.32667 63.0311 7.72C63.5044 8.11333 63.8844 8.59333 64.1711 9.16C64.4578 9.72 64.6011 10.4033 64.6011 11.21C64.6011 12.09 64.4044 12.86 64.0111 13.52C63.6178 14.1733 63.0678 14.68 62.3611 15.04C61.6544 15.4 60.8311 15.58 59.8911 15.58Z" fill="black"/>
<path d="M78.2241 15.49C76.8307 15.49 75.6174 15.16 74.5841 14.5C73.5507 13.8333 72.7474 12.92 72.1741 11.76C71.6007 10.6 71.3141 9.27667 71.3141 7.79C71.3141 6.30333 71.6007 4.98 72.1741 3.82C72.7474 2.66 73.5507 1.75 74.5841 1.09C75.6174 0.423333 76.8307 0.0899997 78.2241 0.0899997C78.8774 0.0899997 79.4941 0.206666 80.0741 0.44C80.6541 0.666666 81.1641 0.983332 81.6041 1.39L82.8841 0.289999H83.0941V4.47H82.8541C82.7741 3.66333 82.5207 2.95333 82.0941 2.34C81.6741 1.72667 81.1407 1.25 80.4941 0.909999C79.8541 0.563332 79.1641 0.389999 78.4241 0.389999C77.5907 0.389999 76.8874 0.603333 76.3141 1.03C75.7407 1.45 75.2807 2.01667 74.9341 2.73C74.5874 3.43667 74.3341 4.23 74.1741 5.11C74.0207 5.98333 73.9441 6.87667 73.9441 7.79C73.9441 8.69667 74.0207 9.59 74.1741 10.47C74.3341 11.35 74.5874 12.1467 74.9341 12.86C75.2807 13.5667 75.7407 14.1333 76.3141 14.56C76.8874 14.98 77.5907 15.19 78.4241 15.19C79.0974 15.19 79.7074 15.0833 80.2541 14.87C80.8007 14.6567 81.2741 14.3633 81.6741 13.99C82.0741 13.61 82.3907 13.1733 82.6241 12.68C82.8574 12.1867 83.0007 11.6633 83.0541 11.11H83.2941V15.29H83.0841L81.9141 14.11C81.4674 14.5367 80.9274 14.8733 80.2941 15.12C79.6674 15.3667 78.9774 15.49 78.2241 15.49Z" fill="black"/>
<path d="M91.7989 15.49C90.7656 15.49 89.8456 15.2933 89.0389 14.9C88.2389 14.5067 87.5589 13.9567 86.9989 13.25C86.4389 12.5433 86.0122 11.7267 85.7189 10.8C85.4256 9.86667 85.2789 8.86333 85.2789 7.79C85.2789 6.71667 85.4322 5.71667 85.7389 4.79C86.0522 3.85667 86.4956 3.03667 87.0689 2.33C87.6422 1.62333 88.3289 1.07333 89.1289 0.68C89.9289 0.286666 90.8189 0.0899997 91.7989 0.0899997C92.7789 0.0899997 93.6656 0.286666 94.4589 0.68C95.2589 1.07333 95.9456 1.62333 96.5189 2.33C97.0922 3.03667 97.5322 3.85667 97.8389 4.79C98.1456 5.71667 98.2989 6.71667 98.2989 7.79C98.2989 8.86333 98.1522 9.86667 97.8589 10.8C97.5722 11.7267 97.1489 12.5433 96.5889 13.25C96.0356 13.9567 95.3556 14.5067 94.5489 14.9C93.7422 15.2933 92.8256 15.49 91.7989 15.49ZM91.7989 15.28C92.6189 15.28 93.2822 15.07 93.7889 14.65C94.3022 14.23 94.6922 13.6633 94.9589 12.95C95.2322 12.2367 95.4189 11.4333 95.5189 10.54C95.6189 9.64667 95.6689 8.73 95.6689 7.79C95.6689 6.84333 95.6089 5.92667 95.4889 5.04C95.3756 4.14667 95.1756 3.34333 94.8889 2.63C94.6022 1.91667 94.2089 1.35 93.7089 0.93C93.2089 0.51 92.5722 0.3 91.7989 0.3C91.0256 0.3 90.3856 0.51 89.8789 0.93C89.3789 1.35 88.9856 1.91667 88.6989 2.63C88.4122 3.34333 88.2089 4.14667 88.0889 5.04C87.9689 5.92667 87.9089 6.84333 87.9089 7.79C87.9089 8.73 87.9589 9.64667 88.0589 10.54C88.1656 11.4333 88.3522 12.2367 88.6189 12.95C88.8922 13.6633 89.2856 14.23 89.7989 14.65C90.3122 15.07 90.9789 15.28 91.7989 15.28Z" fill="black"/>
<path d="M101.971 0.289999V15.07H104.341V15.29H99.7208V15.07H101.741V0.51H99.7208V0.289999H101.971ZM113.931 0.289999V0.51H111.821V15.49H111.521L101.811 0.289999H104.501L111.591 11.65V0.51H109.261V0.289999H113.931Z" fill="black"/>
<path d="M118.457 7.67V7.53H121.438C122.077 7.53 122.617 7.39667 123.057 7.13C123.497 6.85667 123.831 6.46333 124.057 5.95C124.291 5.43 124.408 4.79667 124.408 4.05C124.408 3.30333 124.291 2.66667 124.057 2.14C123.831 1.61333 123.497 1.21 123.057 0.93C122.617 0.65 122.077 0.51 121.438 0.51H114.857V0.289999H121.577C122.611 0.289999 123.514 0.423333 124.287 0.69C125.061 0.956666 125.661 1.36667 126.087 1.92C126.521 2.47333 126.737 3.18333 126.737 4.05C126.737 4.91667 126.537 5.61667 126.137 6.15C125.737 6.68333 125.151 7.07 124.377 7.31C123.611 7.55 122.677 7.67 121.577 7.67H118.457ZM114.857 15.29V15.07H121.387V15.29H114.857ZM116.997 15.17V0.43H119.237V15.17H116.997ZM126.478 15.4C125.864 15.4 125.387 15.2933 125.048 15.08C124.708 14.8667 124.458 14.58 124.298 14.22C124.144 13.8533 124.044 13.4433 123.997 12.99C123.957 12.5367 123.934 12.07 123.927 11.59C123.927 11.1033 123.904 10.6333 123.857 10.18C123.811 9.72667 123.711 9.31667 123.557 8.95C123.404 8.58333 123.151 8.29333 122.798 8.08C122.451 7.86667 121.971 7.76 121.357 7.76H118.457V7.63H122.097C123.051 7.63 123.808 7.76667 124.368 8.04C124.934 8.30667 125.357 8.66333 125.637 9.11C125.917 9.55 126.104 10.0367 126.197 10.57C126.291 11.0967 126.341 11.6267 126.347 12.16C126.354 12.6933 126.364 13.1833 126.377 13.63C126.397 14.07 126.471 14.4267 126.597 14.7C126.724 14.9667 126.958 15.1 127.298 15.1C127.511 15.1 127.707 15.0767 127.887 15.03C128.068 14.9833 128.224 14.9267 128.357 14.86L128.438 15.06C128.277 15.1467 128.027 15.2233 127.688 15.29C127.348 15.3633 126.944 15.4 126.478 15.4Z" fill="black"/>
<path d="M132.942 10.52V10.3H139.222V10.52H132.942ZM136.932 0L142.152 15.07H143.642V15.29H137.552V15.07H139.572L135.652 2.93L131.412 15.07H133.672V15.29H129.272V15.07H131.152L136.442 0H136.932Z" fill="black"/>
<path d="M150.404 0.289999C151.917 0.289999 153.221 0.616666 154.314 1.27C155.407 1.91667 156.247 2.80667 156.834 3.94C157.427 5.06667 157.724 6.35 157.724 7.79C157.724 8.87 157.547 9.86667 157.194 10.78C156.841 11.6933 156.341 12.4867 155.694 13.16C155.047 13.8333 154.274 14.3567 153.374 14.73C152.481 15.1033 151.491 15.29 150.404 15.29H144.584V15.07H146.384V0.51H144.584V0.289999H150.404ZM148.624 15.07H150.404C151.284 15.07 152.021 14.87 152.614 14.47C153.214 14.0633 153.694 13.5167 154.054 12.83C154.421 12.1367 154.684 11.3567 154.844 10.49C155.004 9.61667 155.084 8.71667 155.084 7.79C155.084 6.85667 154.994 5.95667 154.814 5.09C154.634 4.22333 154.357 3.44667 153.984 2.76C153.611 2.06667 153.127 1.52 152.534 1.12C151.941 0.713334 151.231 0.51 150.404 0.51H148.624V15.07Z" fill="black"/>
<path d="M167.805 10.52V10.3H174.085V10.52H167.805ZM171.795 0L177.015 15.07H178.505V15.29H172.415V15.07H174.435L170.515 2.93L166.275 15.07H168.535V15.29H164.135V15.07H166.015L171.305 0H171.795Z" fill="black"/>
<path d="M183.047 7.67V7.53H186.027C186.667 7.53 187.207 7.39667 187.647 7.13C188.087 6.85667 188.421 6.46333 188.647 5.95C188.881 5.43 188.997 4.79667 188.997 4.05C188.997 3.30333 188.881 2.66667 188.647 2.14C188.421 1.61333 188.087 1.21 187.647 0.93C187.207 0.65 186.667 0.51 186.027 0.51H179.447V0.289999H186.167C187.201 0.289999 188.104 0.423333 188.877 0.69C189.651 0.956666 190.251 1.36667 190.677 1.92C191.111 2.47333 191.327 3.18333 191.327 4.05C191.327 4.91667 191.127 5.61667 190.727 6.15C190.327 6.68333 189.741 7.07 188.967 7.31C188.201 7.55 187.267 7.67 186.167 7.67H183.047ZM179.447 15.29V15.07H185.977V15.29H179.447ZM181.587 15.17V0.43H183.827V15.17H181.587ZM191.067 15.4C190.454 15.4 189.977 15.2933 189.637 15.08C189.297 14.8667 189.047 14.58 188.887 14.22C188.734 13.8533 188.634 13.4433 188.587 12.99C188.547 12.5367 188.524 12.07 188.517 11.59C188.517 11.1033 188.494 10.6333 188.447 10.18C188.401 9.72667 188.301 9.31667 188.147 8.95C187.994 8.58333 187.741 8.29333 187.387 8.08C187.041 7.86667 186.561 7.76 185.947 7.76H183.047V7.63H186.687C187.641 7.63 188.397 7.76667 188.957 8.04C189.524 8.30667 189.947 8.66333 190.227 9.11C190.507 9.55 190.694 10.0367 190.787 10.57C190.881 11.0967 190.931 11.6267 190.937 12.16C190.944 12.6933 190.954 13.1833 190.967 13.63C190.987 14.07 191.061 14.4267 191.187 14.7C191.314 14.9667 191.547 15.1 191.887 15.1C192.101 15.1 192.297 15.0767 192.477 15.03C192.657 14.9833 192.814 14.9267 192.947 14.86L193.027 15.06C192.867 15.1467 192.617 15.2233 192.277 15.29C191.937 15.3633 191.534 15.4 191.067 15.4Z" fill="black"/>
<path d="M201.251 15.49C199.858 15.49 198.645 15.16 197.611 14.5C196.578 13.8333 195.775 12.92 195.201 11.76C194.628 10.6 194.341 9.27667 194.341 7.79C194.341 6.30333 194.628 4.98 195.201 3.82C195.775 2.66 196.578 1.75 197.611 1.09C198.645 0.423333 199.858 0.0899997 201.251 0.0899997C201.905 0.0899997 202.521 0.206666 203.101 0.44C203.681 0.666666 204.191 0.983332 204.631 1.39L205.911 0.289999H206.121V4.47H205.881C205.801 3.66333 205.548 2.95333 205.121 2.34C204.701 1.72667 204.168 1.25 203.521 0.909999C202.881 0.563332 202.191 0.389999 201.451 0.389999C200.618 0.389999 199.915 0.603333 199.341 1.03C198.768 1.45 198.308 2.01667 197.961 2.73C197.615 3.43667 197.361 4.23 197.201 5.11C197.048 5.98333 196.971 6.87667 196.971 7.79C196.971 8.69667 197.048 9.59 197.201 10.47C197.361 11.35 197.615 12.1467 197.961 12.86C198.308 13.5667 198.768 14.1333 199.341 14.56C199.915 14.98 200.618 15.19 201.451 15.19C202.125 15.19 202.735 15.0833 203.281 14.87C203.828 14.6567 204.301 14.3633 204.701 13.99C205.101 13.61 205.418 13.1733 205.651 12.68C205.885 12.1867 206.028 11.6633 206.081 11.11H206.321V15.29H206.111L204.941 14.11C204.495 14.5367 203.955 14.8733 203.321 15.12C202.695 15.3667 202.005 15.49 201.251 15.49Z" fill="black"/>
<path d="M222.166 0.289999V0.51H220.366V15.07H222.166V15.29H216.186V15.07H218.126V8H211.866V15.07H213.806V15.29H207.826V15.07H209.626V0.51H207.826V0.289999H213.806V0.51H211.866V7.78H218.126V0.51H216.186V0.289999H222.166Z" fill="black"/>
<path d="M223.1 15.29V15.07H225.3V0.51H223.1V0.289999H229.94V0.51H227.54V15.07H229.94V15.29H223.1Z" fill="black"/>
<path d="M233.723 15.29V15.07H235.923V0.51H234.133C233.56 0.51 233.083 0.62 232.703 0.84C232.323 1.05333 232.02 1.35667 231.793 1.75C231.566 2.13667 231.4 2.59667 231.293 3.13C231.186 3.65667 231.123 4.23667 231.103 4.87H230.873V0.289999H243.213V4.87H242.983C242.963 4.23667 242.9 3.65667 242.793 3.13C242.686 2.59667 242.52 2.13667 242.293 1.75C242.066 1.35667 241.76 1.05333 241.373 0.84C240.993 0.62 240.52 0.51 239.953 0.51H238.163V15.07H240.363V15.29H233.723Z" fill="black"/>
<path d="M244.135 15.29V15.07H245.935V0.51H244.135V0.289999H254.965V4.39H254.745C254.718 3.67667 254.578 3.02667 254.325 2.44C254.072 1.85333 253.692 1.38667 253.185 1.04C252.678 0.686666 252.035 0.51 251.255 0.51H248.175V15.07H251.055C251.968 15.07 252.705 14.89 253.265 14.53C253.825 14.17 254.238 13.67 254.505 13.03C254.771 12.3833 254.918 11.6367 254.945 10.79H255.165V15.29H244.135ZM251.425 9.81C251.398 9.36333 251.282 8.98 251.075 8.66C250.868 8.33333 250.602 8.08333 250.275 7.91C249.955 7.73 249.605 7.64 249.225 7.64H247.535V7.42H249.225C249.605 7.42 249.955 7.34 250.275 7.18C250.602 7.02 250.868 6.78667 251.075 6.48C251.282 6.17333 251.398 5.79667 251.425 5.35H251.655V9.81H251.425Z" fill="black"/>
<path d="M263.751 15.49C262.358 15.49 261.145 15.16 260.111 14.5C259.078 13.8333 258.275 12.92 257.701 11.76C257.128 10.6 256.841 9.27667 256.841 7.79C256.841 6.30333 257.128 4.98 257.701 3.82C258.275 2.66 259.078 1.75 260.111 1.09C261.145 0.423333 262.358 0.0899997 263.751 0.0899997C264.405 0.0899997 265.021 0.206666 265.601 0.44C266.181 0.666666 266.691 0.983332 267.131 1.39L268.411 0.289999H268.621V4.47H268.381C268.301 3.66333 268.048 2.95333 267.621 2.34C267.201 1.72667 266.668 1.25 266.021 0.909999C265.381 0.563332 264.691 0.389999 263.951 0.389999C263.118 0.389999 262.415 0.603333 261.841 1.03C261.268 1.45 260.808 2.01667 260.461 2.73C260.115 3.43667 259.861 4.23 259.701 5.11C259.548 5.98333 259.471 6.87667 259.471 7.79C259.471 8.69667 259.548 9.59 259.701 10.47C259.861 11.35 260.115 12.1467 260.461 12.86C260.808 13.5667 261.268 14.1333 261.841 14.56C262.415 14.98 263.118 15.19 263.951 15.19C264.625 15.19 265.235 15.0833 265.781 14.87C266.328 14.6567 266.801 14.3633 267.201 13.99C267.601 13.61 267.918 13.1733 268.151 12.68C268.385 12.1867 268.528 11.6633 268.581 11.11H268.821V15.29H268.611L267.441 14.11C266.995 14.5367 266.455 14.8733 265.821 15.12C265.195 15.3667 264.505 15.49 263.751 15.49Z" fill="black"/>
<path d="M273.176 15.29V15.07H275.376V0.51H273.586C273.013 0.51 272.536 0.62 272.156 0.84C271.776 1.05333 271.473 1.35667 271.246 1.75C271.02 2.13667 270.853 2.59667 270.746 3.13C270.64 3.65667 270.576 4.23667 270.556 4.87H270.326V0.289999H282.666V4.87H282.436C282.416 4.23667 282.353 3.65667 282.246 3.13C282.14 2.59667 281.973 2.13667 281.746 1.75C281.52 1.35667 281.213 1.05333 280.826 0.84C280.446 0.62 279.973 0.51 279.406 0.51H277.616V15.07H279.816V15.29H273.176Z" fill="black"/>
</mask>
<g mask="url(#mask0_1_299)">
<rect x="-487" y="-317" width="1436" height="654" fill="url(#paint0_linear_1_299)"/>
</g>
<defs>
<linearGradient id="paint0_linear_1_299" x1="14" y1="10.4" x2="316" y2="10.4" gradientUnits="userSpaceOnUse">
<stop offset="0.9999"/>
<stop offset="1" stop-opacity="0"/>
</linearGradient>
</defs>
</svg>
